# AST/ASF file generated using VICON BodyLanguage
# -----------------------------------------------
:version 1.10
:name VICON
:units
  mass 1.0
  length 0.45
  angle deg
:documentation
   .ast/.asf automatically generated from VICON data using
   VICON BodyBuilder and BodyLanguage model FoxedUp or BRILLIANT.MOD
:root
   order TX TY TZ RX RY RZ
   axis XYZ
   position 0 0 0  
   orientation 0 0 0 
:bonedata
  begin
     id 1 
     name lhipjoint
     direction 0.660183 -0.676772 0.325788 
     length 2.75133 
     axis 0 0 0  XYZ
  end
  begin
     id 2 
     name lfemur
     direction 0.34202 -0.939693 0  
     length 7.70317  
     axis 0 0 20  XYZ
    dof rx ry rz
    limits (-160.0 20.0)
           (-70.0 70.0)
           (-60.0 70.0)
  end
  begin
     id 3 
     name ltibia
     direction 0.342105 -0.939662 0   
     length 7.18701   
     axis 0 0 20   XYZ
    dof rx
    limits (-10.0 170.0)
  end
  begin
     id 4 
     name lfoot
     direction 0.14163 -0.389126 0.910232   
     length 2.41719   
     axis -90 7.62852e-016 20   XYZ
    dof rx rz
    limits (-45.0 90.0)
           (-70.0 20.0)
  end
  begin
     id 5 
     name ltoes
     direction 1.53533e-011 -4.21926e-011 1   
     length 1.18611   
     axis -90 7.62852e-016 20   XYZ
    dof rx
    limits (-90.0 20.0)
  end
  begin
     id 6 
     name rhipjoint
     direction -0.6658 -0.67229 0.323631   
     length 2.76968  
     axis 0 0 0  XYZ 
  end
  begin
     id 7 
     name rfemur
     direction -0.34202 -0.939693 0   
     length 7.92547   
     axis 0 0 -20   XYZ
    dof rx ry rz
    limits (-160.0 20.0)
           (-70.0 70.0)
           (-70.0 60.0)
  end
  begin
     id 8 
     name rtibia
     direction -0.342022 -0.939692 0   
     length 7.22641   
     axis 0 0 -20   XYZ
    dof rx
    limits (-10.0 170.0)
 end
 begin
     id 9 
     name rfoot
     direction -0.105675 -0.29034 0.951071   
     length 2.48149  
     axis -90 -7.62852e-016 -20   XYZ
    dof rx rz
    limits (-45.0 90.0)
           (-20.0 70.0)
  end
  begin
     id 10 
     name rtoes
     direction -1.5349e-011 -4.21859e-011 1   
     length 1.23343   
     axis -90 -7.62852e-016 -20   XYZ
    dof rx
    limits (-90.0 20.0)
  end
  begin
     id 11 
     name lowerback
     direction 0.0104173 0.993624 -0.112266   
     length 2.00527   
     axis 0 0 0   XYZ
    dof rx ry rz
    limits (-20.0 45.0)
           (-30.0 30.0)
           (-30.0 30.0)
  end
  begin
     id 12 
     name upperback
     direction 0.00733149 0.999856 -0.0152913   
     length 2.01385   
     axis 0 0 0   XYZ
    dof rx ry rz
    limits (-20.0 45.0)
           (-30.0 30.0)
           (-30.0 30.0)
  end
  begin
     id 13 
     name thorax
     direction 0.0026304 0.999318 0.036841   
     length 2.03734   
     axis 0 0 0   XYZ
    dof rx ry rz
    limits (-20.0 45.0)
           (-30.0 30.0)
           (-30.0 30.0)
  end
  begin
     id 14 
     name lowerneck
     direction 0.0293154 0.998757 0.0403082   
     length 1.65303   
     axis 0 0 0   XYZ
    dof rx ry rz
    limits (-20.0 45.0)
           (-30.0 30.0)
           (-30.0 30.0)
  end
  begin
     id 15 
     name upperneck
     direction -0.0376619 0.998184 -0.0470083   
     length 1.60926   
     axis 0 0 0   XYZ
    dof rx ry rz
    limits (-20.0 45.0)
           (-30.0 30.0)
           (-30.0 30.0)
  end
  begin
     id 16
     name head
     direction -0.0170133 0.999635 -0.0209778  
     length 1.73625  
     axis 0 0 0   XYZ
    dof rx ry rz
    limits (-20.0 45.0)
           (-30.0 30.0)
           (-30.0 30.0)
  end
  begin
     id 17 
     name lclavicle
     direction 0.919857 0.39181 -0.0186333  
     length 3.75313  
     axis 0 0 0   XYZ
    dof ry rz
    limits (-20.0 10.0)
           (0.0 20.0)
  end
  begin
     id 18 
     name lhumerus
     direction 1 -4.48988e-011 1.44029e-027   
     length 5.49313   
     axis 180 -30 -90   XYZ
    dof rx ry rz
    limits (-60.0 90.0)
           (-90.0 90.0)
           (-90.0 90.0)
  end
  begin
     id 19
     name lradius
     direction 1 -4.48924e-011 7.46281e-027   
     length 3.29037   
     axis 180 -30 -90   XYZ
    dof rx
    limits (-10.0 170.0)
  end
  begin
     id 20
     name lwrist
     direction 1 -4.48955e-011 2.19879e-026   
     length 1.64519   
     axis -1.34358e-014 90 90   XYZ
    dof ry
    limits (-180.0 0.0)
 end
  begin
     id 21 
     name lhand
     direction 1 -4.48978e-011 4.39747e-026   
     length 0.729656   
     axis -2.80598e-014 90 90   XYZ
    dof rx rz
    limits (-90.0 90.0)
           (-45.0 45.0)
  end
  begin
     id 22 
     name lfingers
     direction 1 -4.49071e-011 8.79411e-026   
     length 0.588268   
     axis -5.61193e-014 90 90   XYZ
    dof rx
    limits (0.0 90.0)
  end
  begin
     id 23
     name lthumb
     direction 0.707107 -6.34817e-011 0.707107   
     length 0.844638   
     axis -90 45 -9.86923e-015   XYZ
    dof rx rz
    limits (-45.0 45.0)
           (-45.0 45.0)
  end
  begin
     id 24 
     name rclavicle
     direction -0.919898 0.388279 0.0550233   
     length 3.7171  
     axis 0 0 0   XYZ 
    dof ry rz
    limits (-10.0 20.0)
           (-20.0 0.0)
  end
  begin
     id 25 
     name rhumerus
     direction -1 -4.48968e-011 9.98372e-028  
     length 5.23684   
     axis 180 30 90   XYZ
    dof rx ry rz
    limits (-90.0 60.0)
           (-90.0 90.0)
           (-90.0 90.0)
  end
  begin
     id 26 
     name rradius
     direction -1 -4.48956e-011 1.01023e-026   
     length 3.38251   
     axis 180 30 90   XYZ
    dof rx
    limits (-10.0 170.0)
  end
  begin
     id 27 
     name rwrist
     direction -1 -4.4892e-011 2.19886e-026   
     length 1.69126   
     axis -1.34358e-014 -90 -90   XYZ
    dof ry
    limits (-180.0 0.0)
  end
  begin
     id 28
     name rhand
     direction -1 -4.49024e-011 4.39727e-026   
     length 0.691454   
     axis -2.80598e-014 -90 -90   XYZ
    dof rx rz
    limits (-90.0 90.0)
           (-45.0 45.0)
  end
  begin
     id 29
     name rfingers
     direction -1 -4.49097e-011 8.79388e-026   
     length 0.557468   
     axis -5.61193e-014 -90 -90   XYZ
    dof rx
    limits (0.0 90.0)
  end
  begin
     id 30
     name rthumb
     direction -0.707107 -6.34938e-011 0.707107   
     length 0.800416   
     axis -90 -45 9.86923e-015   XYZ
    dof rx rz
    limits (-45.0 45.0)
           (-45.0 45.0)
  end
:hierarchy
  begin
    root lhipjoint rhipjoint lowerback
    lhipjoint lfemur
    lfemur ltibia
    ltibia lfoot
    lfoot ltoes
    rhipjoint rfemur
    rfemur rtibia
    rtibia rfoot
    rfoot rtoes
    lowerback upperback
    upperback thorax
    thorax lowerneck lclavicle rclavicle
    lowerneck upperneck
    upperneck head
    lclavicle lhumerus
    lhumerus lradius
    lradius lwrist
    lwrist lhand lthumb
    lhand lfingers
    rclavicle rhumerus
    rhumerus rradius
    rradius rwrist
    rwrist rhand rthumb
    rhand rfingers
  end

#!OML:ASF H:\BabyWalks\Project 1\Capture day 1\Session 1\baby.ASF
:FULLY-SPECIFIED
:DEGREES
61
root -38.1453 17.4224 -4.1946 -16.3335 75.2679 -15.4025
lowerback 15.2783 -0.666688 0.444605
upperback 8.26789 -0.35369 3.05161
thorax 0.206285 -0.0551256 2.99824
lowerneck -3.13048 5.59217 1.29547
upperneck 0.806221 7.59669 -7.25316
head 1.14612 3.73474 -2.34837
rclavicle -1.58034e-014 9.54166e-015
rhumerus -32.2857 17.9572 -77.7174
rradius 44.8332
rwrist 5.77698
rhand -6.92655 -16.0335
rfingers 7.12502
rthumb 18.9415 -45.1313
lclavicle -1.58034e-014 9.54166e-015
lhumerus -36.3861 2.66138 82.6904
lradius 49.3235
lwrist -0.0806603
lhand 1.22237 10.6954
lfingers 7.12502
lthumb 26.7607 38.8227
rfemur 5.31443 13.2552 26.3002
rtibia 20.4616
rfoot -25.314 0.61233
rtoes 8.60184
lfemur -19.2413 -1.88016 -10.9213
ltibia 34.4576
lfoot -13.2417 -17.5937
ltoes 23.6911
62
root -38.1236 17.432 -4.21011 -16.2008 75.1158 -15.3883
lowerback 15.2571 -0.622203 0.393846
upperback 8.22946 -0.307482 2.98556
thorax 0.173931 -0.0338986 2.95029
lowerneck -3.13343 5.58231 1.25583
upperneck 0.828267 7.58286 -7.16294
head 1.14677 3.72764 -2.31194
rclavicle -2.48481e-014 3.18055e-015
rhumerus -32.3798 18.1693 -77.9576
rradius 45.0025
rwrist 5.68663
rhand -6.91002 -16.0299
rfingers 7.12502
rthumb 18.9574 -45.1261
lclavicle -2.48481e-014 3.18055e-015
lhumerus -36.3638 2.83294 82.521
lradius 49.3149
lwrist -0.0977431
lhand 1.12503 10.7116
lfingers 7.12502
lthumb 26.6675 38.853
rfemur 5.31234 13.273 26.22
rtibia 20.2355
rfoot -25.1452 0.677934
rtoes 8.20362
lfemur -19.1978 -1.76714 -10.9358
ltibia 34.3399
lfoot -13.306 -17.5654
ltoes 23.7098
63
root -38.1031 17.4404 -4.22511 -16.0224 74.9772 -15.3264
lowerback 15.2423 -0.579792 0.32634
upperback 8.1912 -0.26588 2.91921
thorax 0.138871 -0.0154144 2.91228
lowerneck -3.10494 5.58144 1.23661
upperneck 0.828668 7.57931 -7.09174
head 1.13741 3.72668 -2.28622
rclavicle 2.6339e-014 -2.127e-014
rhumerus -32.4696 18.412 -78.2064
rradius 45.1847
rwrist 5.60385
rhand -6.90459 -16.0182
rfingers 7.12502
rthumb 18.9626 -45.1139
lclavicle 2.6339e-014 -2.127e-014
lhumerus -36.3386 3.00664 82.3509
lradius 49.315
lwrist -0.103369
lhand 1.03275 10.7391
lfingers 7.12502
lthumb 26.5792 38.8939
rfemur 5.30765 13.2492 26.1174
rtibia 20.0188
rfoot -24.9981 0.74481
rtoes 7.79919
lfemur -19.1651 -1.68056 -10.9644
ltibia 34.2316
lfoot -13.3965 -17.5178
ltoes 23.6029
64
root -38.0836 17.4474 -4.23945 -15.7994 74.8536 -15.2189
lowerback 15.2341 -0.5406 0.244354
upperback 8.15121 -0.23023 2.85084
thorax 0.098967 -0.000250361 2.8813
lowerneck -3.03095 5.59297 1.21793
upperneck 0.791105 7.58997 -7.02591
head 1.109 3.73448 -2.26371
rclavicle -7.95139e-015 -2.24627e-014
rhumerus -32.5597 18.6801 -78.4661
rradius 45.3854
rwrist 5.52114
rhand -6.90109 -15.997
rfingers 7.12502
rthumb 18.9659 -45.0923
lclavicle -7.95139e-015 -2.24627e-014
lhumerus -36.317 3.17522 82.1792
lradius 49.3293
lwrist -0.0924149
lhand 0.952068 10.774
lfingers 7.12502
lthumb 26.502 38.9406
rfemur 5.29587 13.1714 25.9891
rtibia 19.8147
rfoot -24.861 0.834591
rtoes 7.42678
lfemur -19.1455 -1.62185 -11.0078
ltibia 34.1328
lfoot -13.5168 -17.4484
ltoes 23.3473
65
root -38.0652 17.4543 -4.25289 -15.5412 74.7445 -15.0766
lowerback 15.2234 -0.502522 0.146897
upperback 8.11501 -0.197928 2.78259
thorax 0.0647014 0.0128503 2.85972
lowerneck -2.95682 5.6061 1.21466
upperneck 0.739017 7.60224 -6.98445
head 1.07795 3.74328 -2.25204
rclavicle -9.83984e-015 1.5704e-014
rhumerus -32.6486 18.9655 -78.7317
rradius 45.6126
rwrist 5.4392
rhand -6.90365 -15.9835
rfingers 7.12502
rthumb 18.9635 -45.0791
lclavicle -9.83984e-015 1.5704e-014
lhumerus -36.2894 3.33153 82.0093
lradius 49.3573
lwrist -0.0726137
lhand 0.887403 10.8173
lfingers 7.12502
lthumb 26.4401 38.9931
rfemur 5.27881 13.1126 25.858
rtibia 19.6254
rfoot -24.7564 0.86487
rtoes 7.06222
lfemur -19.1394 -1.58848 -11.0634
ltibia 34.0453
lfoot -13.6573 -17.358
ltoes 23.004
66
root -38.048 17.4606 -4.26546 -15.2795 74.656 -14.9315
lowerback 15.2118 -0.468152 0.0423743
upperback 8.08348 -0.171057 2.71634
thorax 0.036219 0.023136 2.84507
lowerneck -2.87465 5.621 1.21573
upperneck 0.667441 7.61582 -6.94866
head 1.03988 3.75328 -2.24346
rclavicle -7.11649e-014 -1.86858e-014
rhumerus -32.7344 19.2586 -79.0006
rradius 45.8646
rwrist 5.354
rhand -6.9066 -15.9643
rfingers 7.12502
rthumb 18.9606 -45.0601
lclavicle -7.11649e-014 -1.86858e-014
lhumerus -36.254 3.46531 81.8445
lradius 49.399
lwrist -0.0430454
lhand 0.837198 10.8592
lfingers 7.12502
lthumb 26.392 39.0423
rfemur 5.25118 13.0451 25.7245
rtibia 19.4521
rfoot -24.6614 0.870037
rtoes 6.70586
lfemur -19.1504 -1.58397 -11.1245
ltibia 33.97
lfoot -13.8024 -17.2494
ltoes 22.6764
67
root -38.0319 17.4659 -4.2773 -15.0302 74.583 -14.8012
lowerback 15.1974 -0.435814 -0.0595285
upperback 8.05515 -0.146246 2.65265
thorax 0.0127453 0.0325445 2.83194
lowerneck -2.79032 5.63258 1.24647
upperneck 0.593584 7.62444 -6.93335
head 1.00286 3.76076 -2.24701
rclavicle -1.96797e-014 1.78906e-015
rhumerus -32.822 19.5504 -79.271
rradius 46.1426
rwrist 5.26623
rhand -6.9079 -15.9451
rfingers 7.12502
rthumb 18.9594 -45.0411
lclavicle -1.96797e-014 1.78906e-015
lhumerus -36.2154 3.56429 81.6876
lradius 49.4571
lwrist -0.00864219
lhand 0.797527 10.8958
lfingers 7.12502
lthumb 26.354 39.0846
rfemur 5.21395 12.953 25.5895
rtibia 19.286
rfoot -24.5576 0.885932
rtoes 6.41347
lfemur -19.1793 -1.60357 -11.1843
ltibia 33.9062
lfoot -13.9571 -17.1261
ltoes 22.2374
68
root -38.0172 17.4705 -4.28837 -14.8095 74.5291 -14.7025
lowerback 15.1823 -0.405831 -0.155226
upperback 8.02984 -0.123316 2.59266
thorax -0.00714142 0.0412784 2.8195
lowerneck -2.69145 5.64487 1.30236
upperneck 0.492116 7.63236 -6.94344
head 0.956948 3.76865 -2.26407
rclavicle 4.70623e-014 -1.13307e-014
rhumerus -32.914 19.8364 -79.5427
rradius 46.4501
rwrist 5.16487
rhand -6.90839 -15.9253
rfingers 7.12502
rthumb 18.9589 -45.0214
lclavicle 4.70623e-014 -1.13307e-014
lhumerus -36.1744 3.61925 81.5414
lradius 49.5338
lwrist 0.0268587
lhand 0.761853 10.9191
lfingers 7.12502
lthumb 26.3199 39.113
rfemur 5.17051 12.8797 25.4698
rtibia 19.1291
rfoot -24.4603 0.864856
rtoes 6.14394
lfemur -19.2297 -1.64698 -11.2381
ltibia 33.8593
lfoot -14.1208 -16.9956
ltoes 21.7392
69
root -38.0036 17.4747 -4.29878 -14.6294 74.4906 -14.65
lowerback 15.1685 -0.378053 -0.237849
upperback 8.00483 -0.101222 2.5374
thorax -0.027358 0.0500281 2.80476
lowerneck -2.64134 5.6378 1.32209
upperneck 0.428242 7.61663 -6.89864
head 0.926082 3.76324 -2.25565
rclavicle 1.99779e-014 -1.46107e-014
rhumerus -33.0178 20.1158 -79.815
rradius 46.7939
rwrist 5.04841
rhand -6.90063 -15.9159
rfingers 7.12502
rthumb 18.9664 -45.0112
lclavicle 1.99779e-014 -1.46107e-014
lhumerus -36.1346 3.62357 81.4084
lradius 49.6306
lwrist 0.0607127
lhand 0.723664 10.9286
lfingers 7.12502
lthumb 26.2833 39.1279
rfemur 5.12412 12.845 25.3742
rtibia 18.9753
rfoot -24.374 0.794956
rtoes 5.89406
lfemur -19.3036 -1.71254 -11.2803
ltibia 33.8321
lfoot -14.2835 -16.8621
ltoes 21.2321
70
root -37.9912 17.4778 -4.30863 -14.4986 74.4653 -14.6509
lowerback 15.1593 -0.351318 -0.305518
upperback 7.98071 -0.0780367 2.48901
thorax -0.0491291 0.0598052 2.78865
lowerneck -2.60743 5.62303 1.35305
upperneck 0.363693 7.59082 -6.86541
head 0.898433 3.75246 -2.25276
rclavicle -1.45113e-014 5.86415e-015
rhumerus -33.1283 20.3858 -80.0843
rradius 47.1645
rwrist 4.91674
rhand -6.89807 -15.9054
rfingers 7.12502
rthumb 18.9689 -45.0005
lclavicle -1.45113e-014 5.86415e-015
lhumerus -36.0973 3.57581 81.2927
lradius 49.7495
lwrist 0.0938742
lhand 0.681707 10.927
lfingers 7.12502
lthumb 26.2432 39.1323
rfemur 5.07643 12.8245 25.299
rtibia 18.8184
rfoot -24.2979 0.712654
rtoes 5.67109
lfemur -19.4002 -1.79395 -11.3071
ltibia 33.825
lfoot -14.4374 -16.7338
ltoes 20.7438
71
root -37.9802 17.4802 -4.31801 -14.4208 74.4513 -14.7063
lowerback 15.1636 -0.326726 -0.354634
upperback 7.95558 -0.0546801 2.44584
thorax -0.0792542 0.0703379 2.76759
lowerneck -2.60436 5.59507 1.35157
upperneck 0.325184 7.54858 -6.77661
head 0.879558 3.73259 -2.22527
rclavicle -1.30701e-014 -4.07509e-015
rhumerus -33.2453 20.6477 -80.3536
rradius 47.5594
rwrist 4.76753
rhand -6.90387 -15.89
rfingers 7.12502
rthumb 18.9633 -44.9856
lclavicle -1.30701e-014 -4.07509e-015
lhumerus -36.0656 3.47441 81.1921
lradius 49.8914
lwrist 0.127558
lhand 0.633832 10.9216
lfingers 7.12502
lthumb 26.1973 39.1337
rfemur 5.03265 12.8437 25.2515
rtibia 18.6593
rfoot -24.2442 0.593272
rtoes 5.4403
lfemur -19.5162 -1.89199 -11.3175
ltibia 33.8395
lfoot -14.5786 -16.6165
ltoes 20.2941
72
root -37.9702 17.4818 -4.32699 -14.3657 74.4463 -14.786
lowerback 15.175 -0.302348 -0.394135
upperback 7.9326 -0.0298681 2.40791
thorax -0.110849 0.0819438 2.7464
lowerneck -2.58217 5.57191 1.34144
upperneck 0.245724 7.5112 -6.69505
head 0.844702 3.71633 -2.19963
rclavicle -8.89561e-015 -4.57205e-015
rhumerus -33.366 20.9062 -80.6171
rradius 47.9841
rwrist 4.59735
rhand -6.90729 -15.8757
rfingers 7.12502
rthumb 18.96 -44.9716
lclavicle -8.89561e-015 -4.57205e-015
lhumerus -36.0389 3.32808 81.1091
lradius 50.0579
lwrist 0.158347
lhand 0.578145 10.8975
lfingers 7.12502
lthumb 26.144 39.1175
rfemur 4.98565 12.8951 25.2201
rtibia 18.5093
rfoot -24.2121 0.453974
rtoes 5.21085
lfemur -19.6527 -2.00192 -11.3198
ltibia 33.8802
lfoot -14.7121 -16.5093
ltoes 19.8864
